/* XPM */
static char * ezretss_xpm[] = {
"32 32 255 2",
"  	c None",
". 	c #37227C",
"+ 	c #6D5CA8",
"@ 	c #4B3A86",
"# 	c #7160AA",
"$ 	c #CCC5E1",
"% 	c #503F89",
"& 	c #7362AB",
"* 	c #D3CDE5",
"= 	c #D2CCE4",
"- 	c #4B388A",
"; 	c #7666AD",
"> 	c #B2A9D0",
", 	c #66549F",
"' 	c #A79CC8",
") 	c #ABA1CB",
"! 	c #9E91C6",
"~ 	c #A296C9",
"{ 	c #A194C8",
"] 	c #9F93C8",
"^ 	c #9F92C7",
"/ 	c #9C8FC6",
"( 	c #9D90C6",
"_ 	c #A195C9",
": 	c #A398CA",
"< 	c #9F93C7",
"[ 	c #A599CB",
"} 	c #A397CA",
"| 	c #A093C8",
"1 	c #A498CA",
"2 	c #8A7ABE",
"3 	c #7261AA",
"4 	c #988CBF",
"5 	c #3E2986",
"6 	c #2D167B",
"7 	c #372182",
"8 	c #9185BB",
"9 	c #D3CEE4",
"0 	c #B5ACD1",
"a 	c #C2BBD9",
"b 	c #D0CAE2",
"c 	c #D8D2E7",
"d 	c #8476B3",
"e 	c #A196C5",
"f 	c #887BB5",
"g 	c #D9D4E8",
"h 	c #BEB6D7",
"i 	c #A298C5",
"j 	c #B7AED2",
"k 	c #D0C9E2",
"l 	c #9488BC",
"m 	c #7162A6",
"n 	c #ACA2CB",
"o 	c #D6D0E5",
"p 	c #968ABE",
"q 	c #A399C6",
"r 	c #B4A9D3",
"s 	c #503C97",
"t 	c #C4BCDB",
"u 	c #534094",
"v 	c #48348D",
"w 	c #402B88",
"x 	c #44308A",
"y 	c #3F2987",
"z 	c #C0B9D8",
"A 	c #8F82BA",
"B 	c #7666AA",
"C 	c #A69BC8",
"D 	c #CEC8E1",
"E 	c #6D5DA4",
"F 	c #7565A9",
"G 	c #5A4798",
"H 	c #CDC6E0",
"I 	c #7363A8",
"J 	c #7868AB",
"K 	c #A89EC9",
"L 	c #AAA0CA",
"M 	c #2C147A",
"N 	c #250D76",
"O 	c #6D5CA3",
"P 	c #C7C0DD",
"Q 	c #6756A1",
"R 	c #6E5EA5",
"S 	c #A79CCC",
"T 	c #7362AC",
"U 	c #6A59A2",
"V 	c #6C5BA4",
"W 	c #6B5AA3",
"X 	c #5D4B9A",
"Y 	c #C6BFDC",
"Z 	c #ACA1CC",
"` 	c #D2CCE3",
" .	c #978BBF",
"..	c #A89DC9",
"+.	c #A095C4",
"@.	c #DBD6E9",
"#.	c #9C91C2",
"$.	c #B1A8CF",
"%.	c #6B5AA2",
"&.	c #8A7DB6",
"*.	c #C4BCDA",
"=.	c #D1CBE3",
"-.	c #9A8EC1",
";.	c #B1A7D2",
">.	c #6C5AA7",
",.	c #CDC7E0",
"'.	c #CCC5DF",
").	c #9D91C2",
"!.	c #9A8DC4",
"~.	c #9C90C6",
"{.	c #9E92C7",
"].	c #9A8DC5",
"^.	c #9B8EC5",
"/.	c #A094C8",
"(.	c #A094C6",
"_.	c #9B8FC1",
":.	c #9D90C7",
"<.	c #8878BD",
"[.	c #CFC9E2",
"}.	c #291763",
"|.	c #372577",
"1.	c #715FAA",
"2.	c #CAC3E0",
"3.	c #483390",
"4.	c #6D5BA8",
"5.	c #4A3885",
"6.	c #9284C0",
"7.	c #6957A4",
"8.	c #35217A",
"9.	c #D1CAE3",
"0.	c #6553A1",
"a.	c #3D2B79",
"b.	c #44337C",
"c.	c #44337D",
"d.	c #45347C",
"e.	c #46367E",
"f.	c #49358B",
"g.	c #46357F",
"h.	c #45347D",
"i.	c #43327C",
"j.	c #43337C",
"k.	c #45357E",
"l.	c #43327B",
"m.	c #433082",
"n.	c #A499C7",
"o.	c #B0A6CE",
"p.	c #BDB4D7",
"q.	c #6756A3",
"r.	c #6E5DA8",
"s.	c #CEC7E2",
"t.	c #C3BBDC",
"u.	c #B2A8D1",
"v.	c #C4BCDC",
"w.	c #C4BDDB",
"x.	c #B0A6D0",
"y.	c #BBB2D7",
"z.	c #BCB3D7",
"A.	c #C8C0DE",
"B.	c #C0B8DA",
"C.	c #C6BEDD",
"D.	c #C6BFDE",
"E.	c #C7C0DE",
"F.	c #ACA2CD",
"G.	c #C2BADB",
"H.	c #B4AAD2",
"I.	c #C1B9DA",
"J.	c #C9C2DF",
"K.	c #C2BADA",
"L.	c #7667AA",
"M.	c #321B7E",
"N.	c #594797",
"O.	c #AEA4CD",
"P.	c #6654A2",
"Q.	c #7666AB",
"R.	c #A59BC7",
"S.	c #4B378E",
"T.	c #3A2483",
"U.	c #A69CC8",
"V.	c #B9B1D4",
"W.	c #6655A0",
"X.	c #7768AB",
"Y.	c #8D80B8",
"Z.	c #C3BBDA",
"`.	c #8071B0",
" +	c #CBC5DF",
".+	c #C1B9D8",
"++	c #564296",
"@+	c #8B7EB7",
"#+	c #B3AAD0",
"$+	c #6958A1",
"%+	c #D5CFE5",
"&+	c #705FA6",
"*+	c #2F197D",
"=+	c #362081",
"-+	c #30197D",
";+	c #49358D",
">+	c #B3A9D1",
",+	c #6A58A5",
"'+	c #7767AC",
")+	c #9C90C1",
"!+	c #2A137A",
"~+	c #432E89",
"{+	c #BAB1D4",
"]+	c #7362A7",
"^+	c #897BB6",
"/+	c #D2CDE3",
"(+	c #9E92C3",
"_+	c #7F70B0",
":+	c #B2A9CF",
"<+	c #4A358F",
"[+	c #6959A2",
"}+	c #64539F",
"|+	c #5B4899",
"1+	c #4F3B91",
"2+	c #6C5CA3",
"3+	c #362181",
"4+	c #C2BAD9",
"5+	c #7867AF",
"6+	c #7363AA",
"7+	c #C8C0DD",
"8+	c #D8D3E7",
"9+	c #C1B9D9",
"0+	c #B7AED3",
"a+	c #C5BDDB",
"b+	c #D4CEE5",
"c+	c #CDC7E1",
"d+	c #CCC6E0",
"e+	c #AAA0CB",
"f+	c #C3BCDB",
"g+	c #D1CCE3",
"h+	c #C9C3DE",
"i+	c #D5D0E6",
"j+	c #ADA3CC",
"k+	c #9D92C3",
"l+	c #B5ADD2",
"m+	c #998CC0",
"n+	c #7261AB",
"o+	c #513D93",
"p+	c #67569F",
"q+	c #6A5AA1",
"r+	c #65549E",
"s+	c #66559F",
"t+	c #6857A0",
"u+	c #67579F",
"v+	c #66569F",
"w+	c #65559E",
"x+	c #66559E",
"y+	c #6959A0",
"z+	c #62519C",
"A+	c #AFA6CE",
"B+	c #7E6EB2",
"C+	c #9C90C5",
"D+	c #7868AE",
"E+	c #9E91C7",
"F+	c #543E9C",
"                                                                ",
"                                                                ",
"                                                                ",
"                                                                ",
"                .                                               ",
"              + @                                               ",
"            # $ %                                               ",
"          & * = -                                               ",
"        ; > , ' ) ! ~ { ] ^ / ^ ( ^ _ : _ < [ } | < _ 1 2       ",
"      3 4 5 6 7 8 9 0 a b c d e f g h i j k l m n o p q r       ",
"    s t u v w x y z A B C D E F G H I J K L M N O P Q R S       ",
"      T U V W f X 9 Y Z ) `  ...+.@.0 #.$.b %.&.*.=.p -.;.      ",
"        >.t ,.'.).!.~.^ {.].].!./ ^.^ /.^ / / (._./ :./.<.      ",
"          # [.[.-                             }.|.              ",
"            1.2.%                               3.              ",
"              4.5.                              6.7.            ",
"                8.                              /.9.0.          ",
"      a.b.c.d.e.f.g.h.h.i.c.b.j.i.e.c.i.k.c.l.m.n.o.p.q.        ",
"      r.s.t.u.v.w.x.y.z.A.B.C.D.E.F.G.A.H.I.J.K.L.M.N.O.P.      ",
"      Q.R.S.T.U.V.W.X.Y.Z.`. . +.+++@+#+$+-.%+&+*+=+-+;+>+,+    ",
"      '+)+!+~+).{+]+F ^+/+(+_+:++.<+A 0 [+@+c }+|+1+2+3+4+5+    ",
"      6+[.).7+8+9+o.0+a+b+b c+b d+e+f+g+0 h+i+j+ .k+l+m+n+      ",
"      o+p+q+p+r+s+t+u+v+r+w+x+r+x+y+v+r+t+x+r+z+A+@.%+B+        ",
"                                                C+c D+          ",
"                                                E+B+            ",
"                                                F+              ",
"                                                                ",
"                                                                ",
"                                                                ",
"                                                                ",
"                                                                ",
"                                                                "};
