/* XPM */
static const char *ezretss_xpm[] = {
/* columns rows colors chars-per-pixel */
"32 32 256 2",
"   c black",
".  c #250D76",
"X  c #291763",
"o  c #2A137A",
"O  c #2C147A",
"+  c #2D167B",
"@  c #2F197D",
"#  c #30197D",
"$  c #321B7E",
"%  c #372577",
"&  c #35217A",
"*  c #37227C",
"=  c #3D2B79",
"-  c #43327B",
";  c #43327C",
":  c #43337C",
">  c #44337C",
",  c #44337D",
"<  c #45347C",
"1  c #45347D",
"2  c #45357E",
"3  c #46357F",
"4  c #46367E",
"5  c #362081",
"6  c #362181",
"7  c #372182",
"8  c #3A2483",
"9  c #3E2986",
"0  c #3F2987",
"q  c #402B88",
"w  c #432E89",
"e  c #433082",
"r  c #44308A",
"t  c #49358B",
"y  c #48348D",
"u  c #49358D",
"i  c #4A358F",
"p  c #4B378E",
"a  c #4A3885",
"s  c #4B3A86",
"d  c #4B388A",
"f  c #483390",
"g  c #4F3B91",
"h  c #503F89",
"j  c #513D93",
"k  c #503C97",
"l  c #543E9C",
"z  c #534094",
"x  c #564296",
"c  c #594797",
"v  c #5A4798",
"b  c #5B4899",
"n  c #5D4B9A",
"m  c #62519C",
"M  c #64539F",
"N  c #65549E",
"B  c #65559E",
"V  c #66549F",
"C  c #66559E",
"Z  c #66559F",
"A  c #66569F",
"S  c #67569F",
"D  c #67579F",
"F  c #6553A1",
"G  c #6655A0",
"H  c #6654A2",
"J  c #6756A1",
"K  c #6756A3",
"L  c #6857A0",
"P  c #6957A4",
"I  c #6958A1",
"U  c #6959A0",
"Y  c #6959A2",
"T  c #6A59A2",
"R  c #6A5AA1",
"E  c #6B5AA2",
"W  c #6B5AA3",
"Q  c #6A58A5",
"!  c #6C5BA4",
"~  c #6C5AA7",
"^  c #6C5CA3",
"/  c #6D5CA3",
"(  c #6D5DA4",
")  c #6E5EA5",
"_  c #6D5BA8",
"`  c #6D5CA8",
"'  c #6E5DA8",
"]  c #705FA6",
"[  c #715FAA",
"{  c #7162A6",
"}  c #7362A7",
"|  c #7160AA",
" . c #7261AA",
".. c #7261AB",
"X. c #7363A8",
"o. c #7362AB",
"O. c #7363AA",
"+. c #7362AC",
"@. c #7565A9",
"#. c #7666AA",
"$. c #7666AB",
"%. c #7667AA",
"&. c #7666AD",
"*. c #7767AC",
"=. c #7768AB",
"-. c #7867AF",
";. c #7868AB",
":. c #7868AE",
">. c #7E6EB2",
",. c #7F70B0",
"<. c #8071B0",
"1. c #8476B3",
"2. c #887BB5",
"3. c #897BB6",
"4. c #8A7DB6",
"5. c #8B7EB7",
"6. c #8878BD",
"7. c #8A7ABE",
"8. c #8D80B8",
"9. c #8F82BA",
"0. c #9185BB",
"q. c #9488BC",
"w. c #968ABE",
"e. c #978BBF",
"r. c #988CBF",
"t. c #9284C0",
"y. c #998CC0",
"u. c #9A8EC1",
"i. c #9B8FC1",
"p. c #9A8DC4",
"a. c #9A8DC5",
"s. c #9B8EC5",
"d. c #9C8FC6",
"f. c #9C90C1",
"g. c #9C91C2",
"h. c #9D91C2",
"j. c #9D92C3",
"k. c #9E92C3",
"l. c #9C90C5",
"z. c #9C90C6",
"x. c #9D90C6",
"c. c #9D90C7",
"v. c #9E91C6",
"b. c #9E91C7",
"n. c #9E92C7",
"m. c #9F92C7",
"M. c #9F93C7",
"N. c #9F93C8",
"B. c #A095C4",
"V. c #A094C6",
"C. c #A196C5",
"Z. c #A093C8",
"A. c #A094C8",
"S. c #A194C8",
"D. c #A195C9",
"F. c #A296C9",
"G. c #A397CA",
"H. c #A298C5",
"J. c #A399C6",
"K. c #A499C7",
"L. c #A59BC7",
"P. c #A398CA",
"I. c #A498CA",
"U. c #A599CB",
"Y. c #A69BC8",
"T. c #A69CC8",
"R. c #A79CC8",
"E. c #A79CCC",
"W. c #A89DC9",
"Q. c #A89EC9",
"!. c #AAA0CA",
"~. c #AAA0CB",
"^. c #ABA1CB",
"/. c #ACA2CB",
"(. c #ACA1CC",
"). c #ACA2CD",
"_. c #ADA3CC",
"`. c #AEA4CD",
"'. c #AFA6CE",
"]. c #B0A6CE",
"[. c #B1A8CF",
"{. c #B2A9CF",
"}. c #B0A6D0",
"|. c #B1A7D2",
" X c #B2A8D1",
".X c #B2A9D0",
"XX c #B3A9D1",
"oX c #B3AAD0",
"OX c #B4A9D3",
"+X c #B4AAD2",
"@X c #B5ACD1",
"#X c #B5ADD2",
"$X c #B7AED2",
"%X c #B7AED3",
"&X c #B9B1D4",
"*X c #BAB1D4",
"=X c #BBB2D7",
"-X c #BCB3D7",
";X c #BDB4D7",
":X c #BEB6D7",
">X c #C0B9D8",
",X c #C1B9D8",
"<X c #C1B9D9",
"1X c #C0B8DA",
"2X c #C1B9DA",
"3X c #C2BAD9",
"4X c #C2BBD9",
"5X c #C2BADA",
"6X c #C2BADB",
"7X c #C3BBDA",
"8X c #C3BBDC",
"9X c #C3BCDB",
"0X c #C4BCDA",
"qX c #C4BCDB",
"wX c #C4BDDB",
"eX c #C5BDDB",
"rX c #C4BCDC",
"tX c #C6BEDD",
"yX c #C6BFDC",
"uX c #C6BFDE",
"iX c #C7C0DD",
"pX c #C7C0DE",
"aX c #C8C0DD",
"sX c #C8C0DE",
"dX c #C9C2DF",
"fX c #C9C3DE",
"gX c #CBC5DF",
"hX c #CCC5DF",
"jX c #CAC3E0",
"kX c #CCC5E1",
"lX c #CCC6E0",
"zX c #CDC6E0",
"xX c #CDC7E0",
"cX c #CDC7E1",
"vX c #CEC7E2",
"bX c #CEC8E1",
"nX c #CFC9E2",
"mX c #D0C9E2",
"MX c #D0CAE2",
"NX c #D1CAE3",
"BX c #D1CBE3",
"VX c #D1CCE3",
"CX c #D2CCE3",
"ZX c #D2CDE3",
"AX c #D2CCE4",
"SX c #D3CDE5",
"DX c #D3CEE4",
"FX c #D4CEE5",
"GX c #D5CFE5",
"HX c #D5D0E6",
"JX c #D6D0E5",
"KX c #D8D2E7",
"LX c #D8D3E7",
"PX c #D9D4E8",
"IX c #DBD6E9",
"UX c None",
/* pixels */
"UXUXUXUXUXUXUXUXUXUXUXUXUXUXUXUXUXUXUXUXUXUXUXUXUXUXUXUXUXUXUXUX",
"UXUXUXUXUXUXUXUXUXUXUXUXUXUXUXUXUXUXUXUXUXUXUXUXUXUXUXUXUXUXUXUX",
"UXUXUXUXUXUXUXUXUXUXUXUXUXUXUXUXUXUXUXUXUXUXUXUXUXUXUXUXUXUXUXUX",
"UXUXUXUXUXUXUXUXUXUXUXUXUXUXUXUXUXUXUXUXUXUXUXUXUXUXUXUXUXUXUXUX",
"UXUXUXUXUXUXUXUX* UXUXUXUXUXUXUXUXUXUXUXUXUXUXUXUXUXUXUXUXUXUXUX",
"UXUXUXUXUXUXUX` s UXUXUXUXUXUXUXUXUXUXUXUXUXUXUXUXUXUXUXUXUXUXUX",
"UXUXUXUXUXUX| kXs UXUXUXUXUXUXUXUXUXUXUXUXUXUXUXUXUXUXUXUXUXUXUX",
"UXUXUXUXUXo.AXAXd UXUXUXUXUXUXUXUXUXUXUXUXUXUXUXUXUXUXUXUXUXUXUX",
"UXUXUXUX&..XZ R.^.m.F.F.m.m.m.m.m.m.F.Y.M.m.Y.G.F.F.F.Y.6.UXUXUX",
"UXUXUX| r.9 + 7 0.AX{.3XBXHX1.M.2.PX;XC.%XBXq.{ /.HXw.K.OXUXUXUX",
"UXUXk eXj u q r 9 3X0.#.Y.nX( #.v kX#.%.W.~.+ . / iXJ ( E.UXUXUX",
"UXUXUXo.W ( W 2.n GXeX^.~.BXy.W.M.PX{.g.|.BX/ 2.0XBXw.u.|.UXUXUX",
"UXUXUXUX_ eXkXhXg.p.m.M.m.p.p.p.m.p.M.F.M.d.d.M.u.d.d.F.6.UXUXUX",
"UXUXUXUXUX[ nXnXd UXUXUXUXUXUXUXUXUXUXUXUXUXUXX % UXUXUXUXUXUXUX",
"UXUXUXUXUXUX[ jXs UXUXUXUXUXUXUXUXUXUXUXUXUXUXUXf UXUXUXUXUXUXUX",
"UXUXUXUXUXUXUX_ s UXUXUXUXUXUXUXUXUXUXUXUXUXUXUXt.P UXUXUXUXUXUX",
"UXUXUXUXUXUXUXUX& UXUXUXUXUXUXUXUXUXUXUXUXUXUXUXF.BXF UXUXUXUXUX",
"UXUXUX= , , 4 4 t 4 4 4 ; ; 4 ; ; 4 , ; 4 ; ; e Y._.;XK UXUXUXUX",
"UXUXUX` kXeXXX0X0X|.=X=XiX3XeXpXjX^.3XiX.X3XjX9X#.$ c _.J UXUXUX",
"UXUXUX#.R.u 8 W.=XZ #.9.0X>.w.gX3Xx 5.XXW u.GX( @ 5 @ u .XQ UXUX",
"UXUXUX*.g.o w g.$X} #.2.BXg.,.[.M.u 9.{.W 2.JXJ n g Q 7 3X-.UXUX",
"UXUXUX#.BXg.yXJX3X_.%XeXGXnXnXBXkX^.9XBX{.gXHX_.e.M.{.u.o.UXUXUX",
"UXUXUXj Z W Z Z Z D W Z Z Z Z J Z W Z Z W Z Z m _.IXGX>.UXUXUXUX",
"UXUXUXUXUXUXUXUXUXUXUXUXUXUXUXUXUXUXUXUXUXUXUXUXm.PX:.UXUXUXUXUX",
"UXUXUXUXUXUXUXUXUXUXUXUXUXUXUXUXUXUXUXUXUXUXUXUXm.>.UXUXUXUXUXUX",
"UXUXUXUXUXUXUXUXUXUXUXUXUXUXUXUXUXUXUXUXUXUXUXUXk UXUXUXUXUXUXUX",
"UXUXUXUXUXUXUXUXUXUXUXUXUXUXUXUXUXUXUXUXUXUXUXUXUXUXUXUXUXUXUXUX",
"UXUXUXUXUXUXUXUXUXUXUXUXUXUXUXUXUXUXUXUXUXUXUXUXUXUXUXUXUXUXUXUX",
"UXUXUXUXUXUXUXUXUXUXUXUXUXUXUXUXUXUXUXUXUXUXUXUXUXUXUXUXUXUXUXUX",
"UXUXUXUXUXUXUXUXUXUXUXUXUXUXUXUXUXUXUXUXUXUXUXUXUXUXUXUXUXUXUXUX",
"UXUXUXUXUXUXUXUXUXUXUXUXUXUXUXUXUXUXUXUXUXUXUXUXUXUXUXUXUXUXUXUX",
"UXUXUXUXUXUXUXUXUXUXUXUXUXUXUXUXUXUXUXUXUXUXUXUXUXUXUXUXUXUXUXUX"
};
